<?xml version="1.0" encoding="utf-8"?>
<!-- Generator: Adobe Illustrator 24.0.1, SVG Export Plug-In . SVG Version: 6.00 Build 0)  -->
<svg version="1.1" id="Layer_1" xmlns="http://www.w3.org/2000/svg" xmlns:xlink="http://www.w3.org/1999/xlink" x="0px" y="0px"
	 viewBox="0 0 251.98 85.16" style="enable-background:new 0 0 251.98 85.16;" xml:space="preserve">
<style type="text/css">
	.st0{fill:#FF3333;}
	.st1{fill:url(#SVGID_1_);}
	.st2{fill:#FFFFFF;}
</style>
<g>
	<g>
		<path class="st0" d="M201.6,63.19l1.95,0l0-0.23c0-1.95,0.94-2.88,2.89-2.88l1.4,0l0,1.25l-1.09,0c-0.94,0-1.48-0.08-1.64-0.08
			c-0.08,0-0.12,0.02-0.17,0.06s-0.06,0.09-0.06,0.17c0,0.16,0.08,0.62,0.08,1.48l0,0.23l2.1,0l0,1.25l-2.1,0l-0.01,6.85l-1.4,0
			l0.01-6.85l-1.95,0L201.6,63.19z"/>
		<path class="st0" d="M216.17,67.27c0,2.8-1.88,4.28-4.21,4.28c-2.34,0-4.2-1.49-4.2-4.29c0-2.8,1.88-4.28,4.21-4.28
			C214.31,62.98,216.18,64.46,216.17,67.27z M209.16,67.25c0,1.95,1.16,3.04,2.8,3.04c1.64,0,2.81-1.09,2.81-3.03
			c0-1.95-1.16-3.04-2.8-3.04C210.33,64.22,209.16,65.31,209.16,67.25z"/>
		<path class="st0" d="M217.89,63.22l1.4,0l0,1.29c0,0.08,0.03,0.11,0.11,0.11c0.09,0,0.12-0.05,0.16-0.16
			c0.28-0.89,0.98-1.28,2.01-1.27l0.69,0l0,1.4l-0.89,0c-1.36,0-2.07,0.57-2.08,2.13l-0.01,4.6l-1.4,0L217.89,63.22z"/>
		<path class="st0" d="M227.53,71.03l3.06-10.9l3.12,0l3.02,10.91l0,0.31l-1.59,0l-0.93-3.43l-4.14-0.01l-0.94,3.43l-1.59,0
			L227.53,71.03z M233.83,66.52l-1.55-5.75c-0.02-0.06-0.05-0.09-0.14-0.09c-0.09,0-0.12,0.03-0.14,0.09l-1.57,5.75L233.83,66.52z"
			/>
		<path class="st0" d="M238.38,60.14l4.44,0.01c2.1,0,3.5,1.17,3.5,3.2c0,2.03-1.41,3.19-3.51,3.19l-2.88,0l-0.01,4.83l-1.56,0
			L238.38,60.14z M242.65,65.13c1.32,0,2.1-0.54,2.11-1.79c0-1.25-0.78-1.79-2.1-1.79l-2.73,0l-0.01,3.58L242.65,65.13z"/>
		<path class="st0" d="M249.43,60.16l-0.02,11.22l-1.56,0l0.02-11.22L249.43,60.16z"/>
	</g>
	<g>
		<path class="st0" d="M112.8,52.32c0,0.26-0.13,0.26-0.26,0.26c-0.13,0-0.26-0.13-0.26-0.26l-7.01-27h-8.31h-0.26v28.68h4.02V27.27
			c0-0.13,0.13-0.26,0.26-0.26c0.13,0,0.26,0.13,0.39,0.39l7.01,26.61h8.05l7.01-26.61c0-0.26,0.26-0.39,0.39-0.39
			c0.13,0,0.26,0,0.26,0.26v26.61h4.02V25.32h-8.31L112.8,52.32z"/>
		<path class="st0" d="M141.4,32.75c-5.58-0.01-8.71,3.1-8.97,7.13h3.76c0-2.21,1.56-4.01,5.19-4.01c4.02,0.01,5.58,1.96,5.58,4.95
			v0.78l-7.53,0.12c-5.19,0.12-7.54,2.32-7.54,5.96c-0.01,3.89,3.1,6.75,7.9,6.76c3.5,0,5.45-1.54,6.49-3.62
			c0.13-0.26,0.26-0.26,0.39-0.26s0.13,0.13,0.13,0.26v3.24h3.63l0.03-12.98C150.47,36.01,147.5,32.77,141.4,32.75z M146.95,44.84
			c0,4.28-2.48,6.49-6.5,6.48c-3.24,0-4.93-1.44-5.05-3.52c0-1.82,1.17-2.97,4.02-2.97l7.53-0.12V44.84z"/>
		<path class="st0" d="M162.13,51.74c0,0.13-0.13,0.26-0.39,0.26c-0.13,0.13-0.39,0-0.39-0.26l-5.94-18.57l-3.63-0.01l0,0.91
			l6.45,19.87l2.47,0c0.26,0,0.39,0.13,0.52,0.26c0.13,0.13,0.13,0.39,0,0.65l-1.04,2.98c-0.13,0.39-0.52,0.65-0.91,0.65
			c-0.39,0-1.43-0.26-3.37-0.27l-2.99-0.01l-0.01,3.24l3.76,0.01c4.41,0.01,6.49-1.29,7.8-5.18l7.31-22.31l0-0.78l-3.63-0.01
			L162.13,51.74z"/>
		<path class="st0" d="M184.75,32.71c-4.02-0.01-5.84,1.55-7.02,3.88c-0.13,0.13-0.26,0.26-0.39,0.26c-0.13,0-0.13-0.13-0.13-0.26
			l0.02-11.29l-3.63-0.01l-0.18,28.68l3.63,0.01l0.02-10.77c0.01-5.06,2.35-7.39,6.37-7.39c3.63,0.01,5.58,1.96,5.57,5.72L188.99,54
			l3.63,0.01l0.02-12.98C192.66,35.7,189.68,32.71,184.75,32.71z"/>
		<path class="st0" d="M212.11,47.42c-0.79,2.34-2.22,4.02-5.98,4.01h-0.52c-3.63,0-6.61-3-6.61-6.76l16.48,0.04l0.01-2.34
			c0-5.06-3.23-9.62-9.72-9.63c-6.36-0.01-10.53,4.14-10.54,10.89c-0.01,6.75,4.53,10.9,10.89,10.92c6.36,0.01,8.96-4.01,9.75-7.11
			L212.11,47.42z M205.89,35.86c4.15,0.01,5.71,2.35,5.71,5.72l-12.46-0.03C199.4,38.18,202.52,35.6,205.89,35.86z"/>
		<path class="st0" d="M243.29,32.55c-3.5-0.01-5.58,1.55-6.63,3.88c-0.13,0.26-0.26,0.52-0.52,0.52c-0.26,0-0.26-0.13-0.39-0.26
			c-0.9-2.47-2.98-4.03-6.48-4.04c-3.5-0.01-5.19,1.42-6.24,3.49c0,0.13-0.13,0.26-0.26,0.26c-0.13,0-0.26,0-0.26-0.26l0.01-2.86
			l-3.63-0.01l-0.17,20.51l3.63,0.01l0.02-11.68c0.01-4.54,2.61-6.36,5.59-6.35c3.37,0.01,4.93,1.7,4.92,5.33l-0.02,12.72l3.63,0.01
			l0.02-11.68c0.01-4.54,2.61-6.36,5.59-6.35c3.37,0.01,4.93,1.7,4.92,5.33l-0.02,12.72l3.63,0.01l0.02-12.72
			C250.68,36.33,248.61,32.56,243.29,32.55z"/>
		<linearGradient id="SVGID_1_" gradientUnits="userSpaceOnUse" x1="-66.349" y1="-65.3122" x2="60.73" y2="61.7669">
			<stop  offset="0" style="stop-color:#4029B7"/>
			<stop  offset="0.1093" style="stop-color:#4C2AAF"/>
			<stop  offset="0.3056" style="stop-color:#6B2E9B"/>
			<stop  offset="0.5643" style="stop-color:#9D3379"/>
			<stop  offset="0.6993" style="stop-color:#BA3666"/>
			<stop  offset="0.7816" style="stop-color:#D13957"/>
			<stop  offset="0.9026" style="stop-color:#EE3C44"/>
			<stop  offset="0.9719" style="stop-color:#F93D3D"/>
		</linearGradient>
		<path class="st1" d="M38.43,2.35c-20.5,0-37.12,16.62-37.12,37.12s16.62,37.12,37.12,37.12s37.12-16.62,37.12-37.12
			S58.93,2.35,38.43,2.35z M12.08,54.27h-1.95l10.77-28.81h1.95L12.08,54.27z M42.72,54.27h-5.45L26.49,25.32h5.45l6.62,17.91
			l6.62-17.78h1.95L39.6,45.83L42.72,54.27z M62.19,54.27L51.41,25.32h5.45l10.77,28.94H62.19z"/>
		<polygon class="st2" points="51.41,25.32 62.19,54.27 67.64,54.27 56.86,25.32 		"/>
		<polygon class="st2" points="10.14,54.27 12.08,54.27 22.86,25.45 20.91,25.45 		"/>
		<polygon class="st2" points="31.94,25.32 26.49,25.32 37.26,54.27 42.72,54.27 39.6,45.83 38.56,43.23 		"/>
		<polygon class="st2" points="45.18,25.45 38.56,43.23 39.6,45.83 47.13,25.45 		"/>
	</g>
</g>
</svg>
